{
    "asset" : {
        "generator" : "Khronos glTF Blender I/O v1.3.48",
        "version" : "2.0"
    },
    "scene" : 0,
    "scenes" : [
        {
            "name" : "Scene",
            "nodes" : [
                9,
                10
            ]
        }
    ],
    "nodes" : [
        {
            "name" : "bhead",
            "rotation" : [
                0,
                -1.1920928955078125e-07,
                0,
                1
            ],
            "translation" : [
                3.280405291752452e-15,
                0.5504781603813171,
                -6.155769592523265e-16
            ]
        },
        {
            "name" : "bcape5",
            "rotation" : [
                4.049839130715327e-09,
                1.2983673691735476e-08,
                0.049594245851039886,
                0.9987694621086121
            ],
            "scale" : [
                0.9999998807907104,
                0.9999998807907104,
                1.2646092176437378
            ],
            "translation" : [
                4.3755887801921745e-09,
                0.20209971070289612,
                1.0392933326550287e-14
            ]
        },
        {
            "children" : [
                1
            ],
            "name" : "bcape4",
            "rotation" : [
                3.6778085021893503e-09,
                7.698631065977679e-09,
                0.04973150044679642,
                0.9987626671791077
            ],
            "scale" : [
                0.9999999403953552,
                0.9999999403953552,
                1.0761001110076904
            ],
            "translation" : [
                -7.994954032142232e-09,
                0.21266791224479675,
                1.3358302501263394e-14
            ]
        },
        {
            "children" : [
                2
            ],
            "name" : "bcape3",
            "rotation" : [
                1.730374177277838e-09,
                4.8561963339466274e-09,
                0.021154971793293953,
                0.9997762441635132
            ],
            "scale" : [
                1,
                1,
                1.0871081352233887
            ],
            "translation" : [
                8.539336349144833e-09,
                0.20209981501102448,
                8.159127450139405e-16
            ]
        },
        {
            "children" : [
                3
            ],
            "name" : "bcape2",
            "rotation" : [
                3.130871784051692e-09,
                -2.355179695712195e-08,
                -0.040651366114616394,
                0.9991734027862549
            ],
            "scale" : [
                1,
                1,
                1.142052173614502
            ],
            "translation" : [
                3.699789274946852e-08,
                0.3693578541278839,
                5.034323381346989e-15
            ]
        },
        {
            "children" : [
                4
            ],
            "name" : "bcape1",
            "rotation" : [
                0.6990506649017334,
                -0.10643238574266434,
                -0.6990510821342468,
                0.1064322367310524
            ],
            "scale" : [
                1,
                1,
                1.0000007152557373
            ],
            "translation" : [
                3.280405291752452e-15,
                0.5504781603813171,
                -6.155769592523265e-16
            ]
        },
        {
            "children" : [
                0,
                5
            ],
            "name" : "bchest",
            "rotation" : [
                0,
                1,
                0,
                -7.549790126404332e-08
            ],
            "translation" : [
                0,
                0.5609095096588135,
                0
            ]
        },
        {
            "name" : "bfoot",
            "rotation" : [
                4.371138828673793e-08,
                0,
                1,
                0
            ]
        },
        {
            "children" : [
                6,
                7
            ],
            "name" : "broot",
            "translation" : [
                8.642673776648735e-08,
                0.2076316624879837,
                -2.533197474008375e-08
            ]
        },
        {
            "children" : [
                8
            ],
            "name" : "Armature"
        },
        {
            "mesh" : 0,
            "name" : "Mesh",
            "skin" : 0
        }
    ],
    "animations" : [
        {
            "channels" : [
                {
                    "sampler" : 0,
                    "target" : {
                        "node" : 8,
                        "path" : "translation"
                    }
                },
                {
                    "sampler" : 1,
                    "target" : {
                        "node" : 8,
                        "path" : "rotation"
                    }
                },
                {
                    "sampler" : 2,
                    "target" : {
                        "node" : 8,
                        "path" : "scale"
                    }
                },
                {
                    "sampler" : 3,
                    "target" : {
                        "node" : 6,
                        "path" : "translation"
                    }
                },
                {
                    "sampler" : 4,
                    "target" : {
                        "node" : 6,
                        "path" : "rotation"
                    }
                },
                {
                    "sampler" : 5,
                    "target" : {
                        "node" : 6,
                        "path" : "scale"
                    }
                },
                {
                    "sampler" : 6,
                    "target" : {
                        "node" : 0,
                        "path" : "translation"
                    }
                },
                {
                    "sampler" : 7,
                    "target" : {
                        "node" : 0,
                        "path" : "rotation"
                    }
                },
                {
                    "sampler" : 8,
                    "target" : {
                        "node" : 0,
                        "path" : "scale"
                    }
                },
                {
                    "sampler" : 9,
                    "target" : {
                        "node" : 5,
                        "path" : "translation"
                    }
                },
                {
                    "sampler" : 10,
                    "target" : {
                        "node" : 5,
                        "path" : "rotation"
                    }
                },
                {
                    "sampler" : 11,
                    "target" : {
                        "node" : 5,
                        "path" : "scale"
                    }
                },
                {
                    "sampler" : 12,
                    "target" : {
                        "node" : 4,
                        "path" : "translation"
                    }
                },
                {
                    "sampler" : 13,
                    "target" : {
                        "node" : 4,
                        "path" : "rotation"
                    }
                },
                {
                    "sampler" : 14,
                    "target" : {
                        "node" : 4,
                        "path" : "scale"
                    }
                },
                {
                    "sampler" : 15,
                    "target" : {
                        "node" : 3,
                        "path" : "translation"
                    }
                },
                {
                    "sampler" : 16,
                    "target" : {
                        "node" : 3,
                        "path" : "rotation"
                    }
                },
                {
                    "sampler" : 17,
                    "target" : {
                        "node" : 3,
                        "path" : "scale"
                    }
                },
                {
                    "sampler" : 18,
                    "target" : {
                        "node" : 2,
                        "path" : "translation"
                    }
                },
                {
                    "sampler" : 19,
                    "target" : {
                        "node" : 2,
                        "path" : "rotation"
                    }
                },
                {
                    "sampler" : 20,
                    "target" : {
                        "node" : 2,
                        "path" : "scale"
                    }
                },
                {
                    "sampler" : 21,
                    "target" : {
                        "node" : 1,
                        "path" : "translation"
                    }
                },
                {
                    "sampler" : 22,
                    "target" : {
                        "node" : 1,
                        "path" : "rotation"
                    }
                },
                {
                    "sampler" : 23,
                    "target" : {
                        "node" : 1,
                        "path" : "scale"
                    }
                },
                {
                    "sampler" : 24,
                    "target" : {
                        "node" : 7,
                        "path" : "translation"
                    }
                },
                {
                    "sampler" : 25,
                    "target" : {
                        "node" : 7,
                        "path" : "rotation"
                    }
                },
                {
                    "sampler" : 26,
                    "target" : {
                        "node" : 7,
                        "path" : "scale"
                    }
                }
            ],
            "name" : "walk",
            "samplers" : [
                {
                    "input" : 7,
                    "interpolation" : "LINEAR",
                    "output" : 8
                },
                {
                    "input" : 7,
                    "interpolation" : "LINEAR",
                    "output" : 9
                },
                {
                    "input" : 7,
                    "interpolation" : "LINEAR",
                    "output" : 10
                },
                {
                    "input" : 7,
                    "interpolation" : "LINEAR",
                    "output" : 11
                },
                {
                    "input" : 7,
                    "interpolation" : "LINEAR",
                    "output" : 12
                },
                {
                    "input" : 7,
                    "interpolation" : "LINEAR",
                    "output" : 13
                },
                {
                    "input" : 7,
                    "interpolation" : "LINEAR",
                    "output" : 14
                },
                {
                    "input" : 7,
                    "interpolation" : "LINEAR",
                    "output" : 15
                },
                {
                    "input" : 7,
                    "interpolation" : "LINEAR",
                    "output" : 16
                },
                {
                    "input" : 7,
                    "interpolation" : "LINEAR",
                    "output" : 17
                },
                {
                    "input" : 7,
                    "interpolation" : "LINEAR",
                    "output" : 18
                },
                {
                    "input" : 7,
                    "interpolation" : "LINEAR",
                    "output" : 19
                },
                {
                    "input" : 7,
                    "interpolation" : "LINEAR",
                    "output" : 20
                },
                {
                    "input" : 7,
                    "interpolation" : "LINEAR",
                    "output" : 21
                },
                {
                    "input" : 7,
                    "interpolation" : "LINEAR",
                    "output" : 22
                },
                {
                    "input" : 7,
                    "interpolation" : "LINEAR",
                    "output" : 23
                },
                {
                    "input" : 7,
                    "interpolation" : "LINEAR",
                    "output" : 24
                },
                {
                    "input" : 7,
                    "interpolation" : "LINEAR",
                    "output" : 25
                },
                {
                    "input" : 7,
                    "interpolation" : "LINEAR",
                    "output" : 26
                },
                {
                    "input" : 7,
                    "interpolation" : "LINEAR",
                    "output" : 27
                },
                {
                    "input" : 7,
                    "interpolation" : "LINEAR",
                    "output" : 28
                },
                {
                    "input" : 7,
                    "interpolation" : "LINEAR",
                    "output" : 29
                },
                {
                    "input" : 7,
                    "interpolation" : "LINEAR",
                    "output" : 30
                },
                {
                    "input" : 7,
                    "interpolation" : "LINEAR",
                    "output" : 31
                },
                {
                    "input" : 7,
                    "interpolation" : "LINEAR",
                    "output" : 32
                },
                {
                    "input" : 7,
                    "interpolation" : "LINEAR",
                    "output" : 33
                },
                {
                    "input" : 7,
                    "interpolation" : "LINEAR",
                    "output" : 34
                }
            ]
        }
    ],
    "meshes" : [
        {
            "name" : "Sphere",
            "primitives" : [
                {
                    "attributes" : {
                        "POSITION" : 0,
                        "NORMAL" : 1,
                        "TEXCOORD_0" : 2,
                        "JOINTS_0" : 3,
                        "WEIGHTS_0" : 4
                    },
                    "indices" : 5
                }
            ]
        }
    ],
    "skins" : [
        {
            "inverseBindMatrices" : 6,
            "joints" : [
                8,
                6,
                0,
                5,
                4,
                3,
                2,
                1,
                7
            ],
            "name" : "Armature"
        }
    ],
    "accessors" : [
        {
            "bufferView" : 0,
            "componentType" : 5126,
            "count" : 1932,
            "max" : [
                0.40953293442726135,
                2.2237462997436523,
                0.34866997599601746
            ],
            "min" : [
                -0.4141177833080292,
                0.01636200025677681,
                -0.4069122076034546
            ],
            "type" : "VEC3"
        },
        {
            "bufferView" : 1,
            "componentType" : 5126,
            "count" : 1932,
            "type" : "VEC3"
        },
        {
            "bufferView" : 2,
            "componentType" : 5126,
            "count" : 1932,
            "type" : "VEC2"
        },
        {
            "bufferView" : 3,
            "componentType" : 5123,
            "count" : 1932,
            "type" : "VEC4"
        },
        {
            "bufferView" : 4,
            "componentType" : 5126,
            "count" : 1932,
            "type" : "VEC4"
        },
        {
            "bufferView" : 5,
            "componentType" : 5123,
            "count" : 2904,
            "type" : "SCALAR"
        },
        {
            "bufferView" : 6,
            "componentType" : 5126,
            "count" : 9,
            "type" : "MAT4"
        },
        {
            "bufferView" : 7,
            "componentType" : 5126,
            "count" : 23,
            "max" : [
                0.7666666666666667
            ],
            "min" : [
                0.03333333333333333
            ],
            "type" : "SCALAR"
        },
        {
            "bufferView" : 8,
            "componentType" : 5126,
            "count" : 23,
            "type" : "VEC3"
        },
        {
            "bufferView" : 9,
            "componentType" : 5126,
            "count" : 23,
            "type" : "VEC4"
        },
        {
            "bufferView" : 10,
            "componentType" : 5126,
            "count" : 23,
            "type" : "VEC3"
        },
        {
            "bufferView" : 11,
            "componentType" : 5126,
            "count" : 23,
            "type" : "VEC3"
        },
        {
            "bufferView" : 12,
            "componentType" : 5126,
            "count" : 23,
            "type" : "VEC4"
        },
        {
            "bufferView" : 13,
            "componentType" : 5126,
            "count" : 23,
            "type" : "VEC3"
        },
        {
            "bufferView" : 14,
            "componentType" : 5126,
            "count" : 23,
            "type" : "VEC3"
        },
        {
            "bufferView" : 15,
            "componentType" : 5126,
            "count" : 23,
            "type" : "VEC4"
        },
        {
            "bufferView" : 16,
            "componentType" : 5126,
            "count" : 23,
            "type" : "VEC3"
        },
        {
            "bufferView" : 17,
            "componentType" : 5126,
            "count" : 23,
            "type" : "VEC3"
        },
        {
            "bufferView" : 18,
            "componentType" : 5126,
            "count" : 23,
            "type" : "VEC4"
        },
        {
            "bufferView" : 19,
            "componentType" : 5126,
            "count" : 23,
            "type" : "VEC3"
        },
        {
            "bufferView" : 20,
            "componentType" : 5126,
            "count" : 23,
            "type" : "VEC3"
        },
        {
            "bufferView" : 21,
            "componentType" : 5126,
            "count" : 23,
            "type" : "VEC4"
        },
        {
            "bufferView" : 22,
            "componentType" : 5126,
            "count" : 23,
            "type" : "VEC3"
        },
        {
            "bufferView" : 23,
            "componentType" : 5126,
            "count" : 23,
            "type" : "VEC3"
        },
        {
            "bufferView" : 24,
            "componentType" : 5126,
            "count" : 23,
            "type" : "VEC4"
        },
        {
            "bufferView" : 25,
            "componentType" : 5126,
            "count" : 23,
            "type" : "VEC3"
        },
        {
            "bufferView" : 26,
            "componentType" : 5126,
            "count" : 23,
            "type" : "VEC3"
        },
        {
            "bufferView" : 27,
            "componentType" : 5126,
            "count" : 23,
            "type" : "VEC4"
        },
        {
            "bufferView" : 28,
            "componentType" : 5126,
            "count" : 23,
            "type" : "VEC3"
        },
        {
            "bufferView" : 29,
            "componentType" : 5126,
            "count" : 23,
            "type" : "VEC3"
        },
        {
            "bufferView" : 30,
            "componentType" : 5126,
            "count" : 23,
            "type" : "VEC4"
        },
        {
            "bufferView" : 31,
            "componentType" : 5126,
            "count" : 23,
            "type" : "VEC3"
        },
        {
            "bufferView" : 32,
            "componentType" : 5126,
            "count" : 23,
            "type" : "VEC3"
        },
        {
            "bufferView" : 33,
            "componentType" : 5126,
            "count" : 23,
            "type" : "VEC4"
        },
        {
            "bufferView" : 34,
            "componentType" : 5126,
            "count" : 23,
            "type" : "VEC3"
        }
    ],
    "bufferViews" : [
        {
            "buffer" : 0,
            "byteLength" : 23184,
            "byteOffset" : 0
        },
        {
            "buffer" : 0,
            "byteLength" : 23184,
            "byteOffset" : 23184
        },
        {
            "buffer" : 0,
            "byteLength" : 15456,
            "byteOffset" : 46368
        },
        {
            "buffer" : 0,
            "byteLength" : 15456,
            "byteOffset" : 61824
        },
        {
            "buffer" : 0,
            "byteLength" : 30912,
            "byteOffset" : 77280
        },
        {
            "buffer" : 0,
            "byteLength" : 5808,
            "byteOffset" : 108192
        },
        {
            "buffer" : 0,
            "byteLength" : 576,
            "byteOffset" : 114000
        },
        {
            "buffer" : 0,
            "byteLength" : 92,
            "byteOffset" : 114576
        },
        {
            "buffer" : 0,
            "byteLength" : 276,
            "byteOffset" : 114668
        },
        {
            "buffer" : 0,
            "byteLength" : 368,
            "byteOffset" : 114944
        },
        {
            "buffer" : 0,
            "byteLength" : 276,
            "byteOffset" : 115312
        },
        {
            "buffer" : 0,
            "byteLength" : 276,
            "byteOffset" : 115588
        },
        {
            "buffer" : 0,
            "byteLength" : 368,
            "byteOffset" : 115864
        },
        {
            "buffer" : 0,
            "byteLength" : 276,
            "byteOffset" : 116232
        },
        {
            "buffer" : 0,
            "byteLength" : 276,
            "byteOffset" : 116508
        },
        {
            "buffer" : 0,
            "byteLength" : 368,
            "byteOffset" : 116784
        },
        {
            "buffer" : 0,
            "byteLength" : 276,
            "byteOffset" : 117152
        },
        {
            "buffer" : 0,
            "byteLength" : 276,
            "byteOffset" : 117428
        },
        {
            "buffer" : 0,
            "byteLength" : 368,
            "byteOffset" : 117704
        },
        {
            "buffer" : 0,
            "byteLength" : 276,
            "byteOffset" : 118072
        },
        {
            "buffer" : 0,
            "byteLength" : 276,
            "byteOffset" : 118348
        },
        {
            "buffer" : 0,
            "byteLength" : 368,
            "byteOffset" : 118624
        },
        {
            "buffer" : 0,
            "byteLength" : 276,
            "byteOffset" : 118992
        },
        {
            "buffer" : 0,
            "byteLength" : 276,
            "byteOffset" : 119268
        },
        {
            "buffer" : 0,
            "byteLength" : 368,
            "byteOffset" : 119544
        },
        {
            "buffer" : 0,
            "byteLength" : 276,
            "byteOffset" : 119912
        },
        {
            "buffer" : 0,
            "byteLength" : 276,
            "byteOffset" : 120188
        },
        {
            "buffer" : 0,
            "byteLength" : 368,
            "byteOffset" : 120464
        },
        {
            "buffer" : 0,
            "byteLength" : 276,
            "byteOffset" : 120832
        },
        {
            "buffer" : 0,
            "byteLength" : 276,
            "byteOffset" : 121108
        },
        {
            "buffer" : 0,
            "byteLength" : 368,
            "byteOffset" : 121384
        },
        {
            "buffer" : 0,
            "byteLength" : 276,
            "byteOffset" : 121752
        },
        {
            "buffer" : 0,
            "byteLength" : 276,
            "byteOffset" : 122028
        },
        {
            "buffer" : 0,
            "byteLength" : 368,
            "byteOffset" : 122304
        },
        {
            "buffer" : 0,
            "byteLength" : 276,
            "byteOffset" : 122672
        }
    ],
    "buffers" : [
        {
            "byteLength" : 122948,
            "uri" : "data:application/octet-stream;base64,"
        }
    ]
}
