{
    "asset" : {
        "generator" : "Khronos glTF Blender I/O v1.3.48",
        "version" : "2.0"
    },
    "scene" : 0,
    "scenes" : [
        {
            "name" : "Scene",
            "nodes" : [
                8,
                9
            ]
        }
    ],
    "nodes" : [
        {
            "name" : "bfoot",
            "rotation" : [
                -4.371138828673793e-08,
                3.552713678800501e-15,
                1,
                -2.117582368135751e-22
            ],
            "scale" : [
                1,
                0.9999999403953552,
                0.9999999403953552
            ],
            "translation" : [
                0,
                1.4901161193847656e-08,
                0
            ]
        },
        {
            "name" : "bbeard3",
            "rotation" : [
                -0.10497313737869263,
                -8.687665342677064e-08,
                -4.671694697755413e-10,
                0.9944750666618347
            ],
            "scale" : [
                1.0000001192092896,
                1,
                1
            ],
            "translation" : [
                -1.8626430398072102e-09,
                0.10408728569746017,
                3.725290076417309e-09
            ]
        },
        {
            "children" : [
                1
            ],
            "name" : "bbeard2",
            "rotation" : [
                0.003258912358433008,
                1.1924082343739428e-07,
                -1.0343775141974376e-10,
                0.999994695186615
            ],
            "translation" : [
                -9.313222415485711e-10,
                0.17365692555904388,
                -3.725290076417309e-09
            ]
        },
        {
            "children" : [
                2
            ],
            "name" : "bbeard1",
            "rotation" : [
                -0.9994319677352905,
                -6.792522100340648e-09,
                5.934200331125794e-08,
                0.03370322659611702
            ],
            "scale" : [
                1.0000001192092896,
                1.0000001192092896,
                1.0000381469726562
            ],
            "translation" : [
                1.013162354013275e-08,
                -0.037299469113349915,
                -0.11589222401380539
            ]
        },
        {
            "children" : [
                3
            ],
            "name" : "bhead",
            "rotation" : [
                6.617444111563316e-24,
                7.0898148463172106e-15,
                9.313224635931761e-10,
                1
            ],
            "scale" : [
                1.0000001192092896,
                1.0000001192092896,
                1
            ],
            "translation" : [
                -2.7939677238464355e-09,
                0.08766096830368042,
                1.1102234216718506e-16
            ]
        },
        {
            "children" : [
                4
            ],
            "name" : "bneck",
            "rotation" : [
                6.763584359248398e-09,
                -2.5509757861641447e-08,
                -0.056737013161182404,
                0.9983891844749451
            ],
            "translation" : [
                -7.450580596923828e-09,
                0.21838366985321045,
                -4.73655953665158e-16
            ]
        },
        {
            "children" : [
                5
            ],
            "name" : "bchest",
            "rotation" : [
                0.06616818159818649,
                0.9978085160255432,
                4.9955559688896756e-09,
                -6.807204755432394e-08
            ],
            "scale" : [
                1,
                0.9999999403953552,
                0.9999999403953552
            ],
            "translation" : [
                0,
                0.48857229948043823,
                0
            ]
        },
        {
            "children" : [
                0,
                6
            ],
            "name" : "broot",
            "rotation" : [
                -2.9802322387695312e-08,
                0,
                0,
                1
            ],
            "scale" : [
                1,
                0.9999998807907104,
                0.9999998807907104
            ],
            "translation" : [
                0,
                0.155417799949646,
                0
            ]
        },
        {
            "mesh" : 0,
            "name" : "Mesh",
            "skin" : 0
        },
        {
            "children" : [
                7
            ],
            "name" : "King"
        }
    ],
    "animations" : [
        {
            "channels" : [
                {
                    "sampler" : 0,
                    "target" : {
                        "node" : 7,
                        "path" : "translation"
                    }
                },
                {
                    "sampler" : 1,
                    "target" : {
                        "node" : 7,
                        "path" : "rotation"
                    }
                },
                {
                    "sampler" : 2,
                    "target" : {
                        "node" : 7,
                        "path" : "scale"
                    }
                },
                {
                    "sampler" : 3,
                    "target" : {
                        "node" : 0,
                        "path" : "translation"
                    }
                },
                {
                    "sampler" : 4,
                    "target" : {
                        "node" : 0,
                        "path" : "rotation"
                    }
                },
                {
                    "sampler" : 5,
                    "target" : {
                        "node" : 0,
                        "path" : "scale"
                    }
                },
                {
                    "sampler" : 6,
                    "target" : {
                        "node" : 6,
                        "path" : "translation"
                    }
                },
                {
                    "sampler" : 7,
                    "target" : {
                        "node" : 6,
                        "path" : "rotation"
                    }
                },
                {
                    "sampler" : 8,
                    "target" : {
                        "node" : 6,
                        "path" : "scale"
                    }
                },
                {
                    "sampler" : 9,
                    "target" : {
                        "node" : 5,
                        "path" : "translation"
                    }
                },
                {
                    "sampler" : 10,
                    "target" : {
                        "node" : 5,
                        "path" : "rotation"
                    }
                },
                {
                    "sampler" : 11,
                    "target" : {
                        "node" : 5,
                        "path" : "scale"
                    }
                },
                {
                    "sampler" : 12,
                    "target" : {
                        "node" : 4,
                        "path" : "translation"
                    }
                },
                {
                    "sampler" : 13,
                    "target" : {
                        "node" : 4,
                        "path" : "rotation"
                    }
                },
                {
                    "sampler" : 14,
                    "target" : {
                        "node" : 4,
                        "path" : "scale"
                    }
                },
                {
                    "sampler" : 15,
                    "target" : {
                        "node" : 3,
                        "path" : "translation"
                    }
                },
                {
                    "sampler" : 16,
                    "target" : {
                        "node" : 3,
                        "path" : "rotation"
                    }
                },
                {
                    "sampler" : 17,
                    "target" : {
                        "node" : 3,
                        "path" : "scale"
                    }
                },
                {
                    "sampler" : 18,
                    "target" : {
                        "node" : 2,
                        "path" : "translation"
                    }
                },
                {
                    "sampler" : 19,
                    "target" : {
                        "node" : 2,
                        "path" : "rotation"
                    }
                },
                {
                    "sampler" : 20,
                    "target" : {
                        "node" : 2,
                        "path" : "scale"
                    }
                },
                {
                    "sampler" : 21,
                    "target" : {
                        "node" : 1,
                        "path" : "translation"
                    }
                },
                {
                    "sampler" : 22,
                    "target" : {
                        "node" : 1,
                        "path" : "rotation"
                    }
                },
                {
                    "sampler" : 23,
                    "target" : {
                        "node" : 1,
                        "path" : "scale"
                    }
                }
            ],
            "name" : "walk01",
            "samplers" : [
                {
                    "input" : 7,
                    "interpolation" : "LINEAR",
                    "output" : 8
                },
                {
                    "input" : 7,
                    "interpolation" : "LINEAR",
                    "output" : 9
                },
                {
                    "input" : 7,
                    "interpolation" : "LINEAR",
                    "output" : 10
                },
                {
                    "input" : 7,
                    "interpolation" : "LINEAR",
                    "output" : 11
                },
                {
                    "input" : 7,
                    "interpolation" : "LINEAR",
                    "output" : 12
                },
                {
                    "input" : 7,
                    "interpolation" : "LINEAR",
                    "output" : 13
                },
                {
                    "input" : 7,
                    "interpolation" : "LINEAR",
                    "output" : 14
                },
                {
                    "input" : 7,
                    "interpolation" : "LINEAR",
                    "output" : 15
                },
                {
                    "input" : 7,
                    "interpolation" : "LINEAR",
                    "output" : 16
                },
                {
                    "input" : 7,
                    "interpolation" : "LINEAR",
                    "output" : 17
                },
                {
                    "input" : 7,
                    "interpolation" : "LINEAR",
                    "output" : 18
                },
                {
                    "input" : 7,
                    "interpolation" : "LINEAR",
                    "output" : 19
                },
                {
                    "input" : 7,
                    "interpolation" : "LINEAR",
                    "output" : 20
                },
                {
                    "input" : 7,
                    "interpolation" : "LINEAR",
                    "output" : 21
                },
                {
                    "input" : 7,
                    "interpolation" : "LINEAR",
                    "output" : 22
                },
                {
                    "input" : 7,
                    "interpolation" : "LINEAR",
                    "output" : 23
                },
                {
                    "input" : 7,
                    "interpolation" : "LINEAR",
                    "output" : 24
                },
                {
                    "input" : 7,
                    "interpolation" : "LINEAR",
                    "output" : 25
                },
                {
                    "input" : 7,
                    "interpolation" : "LINEAR",
                    "output" : 26
                },
                {
                    "input" : 7,
                    "interpolation" : "LINEAR",
                    "output" : 27
                },
                {
                    "input" : 7,
                    "interpolation" : "LINEAR",
                    "output" : 28
                },
                {
                    "input" : 7,
                    "interpolation" : "LINEAR",
                    "output" : 29
                },
                {
                    "input" : 7,
                    "interpolation" : "LINEAR",
                    "output" : 30
                },
                {
                    "input" : 7,
                    "interpolation" : "LINEAR",
                    "output" : 31
                }
            ]
        }
    ],
    "meshes" : [
        {
            "name" : "Plane",
            "primitives" : [
                {
                    "attributes" : {
                        "POSITION" : 0,
                        "NORMAL" : 1,
                        "TEXCOORD_0" : 2,
                        "JOINTS_0" : 3,
                        "WEIGHTS_0" : 4
                    },
                    "indices" : 5
                }
            ]
        }
    ],
    "skins" : [
        {
            "inverseBindMatrices" : 6,
            "joints" : [
                7,
                0,
                6,
                5,
                4,
                3,
                2,
                1
            ],
            "name" : "King"
        }
    ],
    "accessors" : [
        {
            "bufferView" : 0,
            "componentType" : 5126,
            "count" : 1970,
            "max" : [
                0.287992000579834,
                1.474291443824768,
                0.23347049951553345
            ],
            "min" : [
                -0.287992000579834,
                0.0009369823383167386,
                -0.23347049951553345
            ],
            "type" : "VEC3"
        },
        {
            "bufferView" : 1,
            "componentType" : 5126,
            "count" : 1970,
            "type" : "VEC3"
        },
        {
            "bufferView" : 2,
            "componentType" : 5126,
            "count" : 1970,
            "type" : "VEC2"
        },
        {
            "bufferView" : 3,
            "componentType" : 5123,
            "count" : 1970,
            "type" : "VEC4"
        },
        {
            "bufferView" : 4,
            "componentType" : 5126,
            "count" : 1970,
            "type" : "VEC4"
        },
        {
            "bufferView" : 5,
            "componentType" : 5123,
            "count" : 2862,
            "type" : "SCALAR"
        },
        {
            "bufferView" : 6,
            "componentType" : 5126,
            "count" : 8,
            "type" : "MAT4"
        },
        {
            "bufferView" : 7,
            "componentType" : 5126,
            "count" : 41,
            "max" : [
                1.3666666666666667
            ],
            "min" : [
                0.03333333333333333
            ],
            "type" : "SCALAR"
        },
        {
            "bufferView" : 8,
            "componentType" : 5126,
            "count" : 41,
            "type" : "VEC3"
        },
        {
            "bufferView" : 9,
            "componentType" : 5126,
            "count" : 41,
            "type" : "VEC4"
        },
        {
            "bufferView" : 10,
            "componentType" : 5126,
            "count" : 41,
            "type" : "VEC3"
        },
        {
            "bufferView" : 11,
            "componentType" : 5126,
            "count" : 41,
            "type" : "VEC3"
        },
        {
            "bufferView" : 12,
            "componentType" : 5126,
            "count" : 41,
            "type" : "VEC4"
        },
        {
            "bufferView" : 13,
            "componentType" : 5126,
            "count" : 41,
            "type" : "VEC3"
        },
        {
            "bufferView" : 14,
            "componentType" : 5126,
            "count" : 41,
            "type" : "VEC3"
        },
        {
            "bufferView" : 15,
            "componentType" : 5126,
            "count" : 41,
            "type" : "VEC4"
        },
        {
            "bufferView" : 16,
            "componentType" : 5126,
            "count" : 41,
            "type" : "VEC3"
        },
        {
            "bufferView" : 17,
            "componentType" : 5126,
            "count" : 41,
            "type" : "VEC3"
        },
        {
            "bufferView" : 18,
            "componentType" : 5126,
            "count" : 41,
            "type" : "VEC4"
        },
        {
            "bufferView" : 19,
            "componentType" : 5126,
            "count" : 41,
            "type" : "VEC3"
        },
        {
            "bufferView" : 20,
            "componentType" : 5126,
            "count" : 41,
            "type" : "VEC3"
        },
        {
            "bufferView" : 21,
            "componentType" : 5126,
            "count" : 41,
            "type" : "VEC4"
        },
        {
            "bufferView" : 22,
            "componentType" : 5126,
            "count" : 41,
            "type" : "VEC3"
        },
        {
            "bufferView" : 23,
            "componentType" : 5126,
            "count" : 41,
            "type" : "VEC3"
        },
        {
            "bufferView" : 24,
            "componentType" : 5126,
            "count" : 41,
            "type" : "VEC4"
        },
        {
            "bufferView" : 25,
            "componentType" : 5126,
            "count" : 41,
            "type" : "VEC3"
        },
        {
            "bufferView" : 26,
            "componentType" : 5126,
            "count" : 41,
            "type" : "VEC3"
        },
        {
            "bufferView" : 27,
            "componentType" : 5126,
            "count" : 41,
            "type" : "VEC4"
        },
        {
            "bufferView" : 28,
            "componentType" : 5126,
            "count" : 41,
            "type" : "VEC3"
        },
        {
            "bufferView" : 29,
            "componentType" : 5126,
            "count" : 41,
            "type" : "VEC3"
        },
        {
            "bufferView" : 30,
            "componentType" : 5126,
            "count" : 41,
            "type" : "VEC4"
        },
        {
            "bufferView" : 31,
            "componentType" : 5126,
            "count" : 41,
            "type" : "VEC3"
        }
    ],
    "bufferViews" : [
        {
            "buffer" : 0,
            "byteLength" : 23640,
            "byteOffset" : 0
        },
        {
            "buffer" : 0,
            "byteLength" : 23640,
            "byteOffset" : 23640
        },
        {
            "buffer" : 0,
            "byteLength" : 15760,
            "byteOffset" : 47280
        },
        {
            "buffer" : 0,
            "byteLength" : 15760,
            "byteOffset" : 63040
        },
        {
            "buffer" : 0,
            "byteLength" : 31520,
            "byteOffset" : 78800
        },
        {
            "buffer" : 0,
            "byteLength" : 5724,
            "byteOffset" : 110320
        },
        {
            "buffer" : 0,
            "byteLength" : 512,
            "byteOffset" : 116044
        },
        {
            "buffer" : 0,
            "byteLength" : 164,
            "byteOffset" : 116556
        },
        {
            "buffer" : 0,
            "byteLength" : 492,
            "byteOffset" : 116720
        },
        {
            "buffer" : 0,
            "byteLength" : 656,
            "byteOffset" : 117212
        },
        {
            "buffer" : 0,
            "byteLength" : 492,
            "byteOffset" : 117868
        },
        {
            "buffer" : 0,
            "byteLength" : 492,
            "byteOffset" : 118360
        },
        {
            "buffer" : 0,
            "byteLength" : 656,
            "byteOffset" : 118852
        },
        {
            "buffer" : 0,
            "byteLength" : 492,
            "byteOffset" : 119508
        },
        {
            "buffer" : 0,
            "byteLength" : 492,
            "byteOffset" : 120000
        },
        {
            "buffer" : 0,
            "byteLength" : 656,
            "byteOffset" : 120492
        },
        {
            "buffer" : 0,
            "byteLength" : 492,
            "byteOffset" : 121148
        },
        {
            "buffer" : 0,
            "byteLength" : 492,
            "byteOffset" : 121640
        },
        {
            "buffer" : 0,
            "byteLength" : 656,
            "byteOffset" : 122132
        },
        {
            "buffer" : 0,
            "byteLength" : 492,
            "byteOffset" : 122788
        },
        {
            "buffer" : 0,
            "byteLength" : 492,
            "byteOffset" : 123280
        },
        {
            "buffer" : 0,
            "byteLength" : 656,
            "byteOffset" : 123772
        },
        {
            "buffer" : 0,
            "byteLength" : 492,
            "byteOffset" : 124428
        },
        {
            "buffer" : 0,
            "byteLength" : 492,
            "byteOffset" : 124920
        },
        {
            "buffer" : 0,
            "byteLength" : 656,
            "byteOffset" : 125412
        },
        {
            "buffer" : 0,
            "byteLength" : 492,
            "byteOffset" : 126068
        },
        {
            "buffer" : 0,
            "byteLength" : 492,
            "byteOffset" : 126560
        },
        {
            "buffer" : 0,
            "byteLength" : 656,
            "byteOffset" : 127052
        },
        {
            "buffer" : 0,
            "byteLength" : 492,
            "byteOffset" : 127708
        },
        {
            "buffer" : 0,
            "byteLength" : 492,
            "byteOffset" : 128200
        },
        {
            "buffer" : 0,
            "byteLength" : 656,
            "byteOffset" : 128692
        },
        {
            "buffer" : 0,
            "byteLength" : 492,
            "byteOffset" : 129348
        }
    ],
    "buffers" : [
        {
            "byteLength" : 129840,
            "uri" : "data:application/octet-stream;base64,"
        }
    ]
}
