{
    "asset" : {
        "generator" : "Khronos glTF Blender I/O v1.3.48",
        "version" : "2.0"
    },
    "scene" : 0,
    "scenes" : [
        {
            "name" : "Scene",
            "nodes" : [
                5
            ]
        }
    ],
    "nodes" : [
        {
            "name" : "head",
            "rotation" : [
                0,
                -3.178651297730539e-08,
                0,
                1
            ],
            "translation" : [
                0,
                0.498080313205719,
                0
            ]
        },
        {
            "children" : [
                0
            ],
            "name" : "torso",
            "rotation" : [
                1.690506845619666e-09,
                0.9997493624687195,
                -0.022391436621546745,
                -7.547898661641739e-08
            ],
            "translation" : [
                0,
                0.5546355843544006,
                0
            ]
        },
        {
            "name" : "foot",
            "rotation" : [
                4.371138828673793e-08,
                0,
                1,
                0
            ]
        },
        {
            "children" : [
                1,
                2
            ],
            "name" : "leg"
        },
        {
            "mesh" : 0,
            "name" : "Mesh",
            "skin" : 0
        },
        {
            "children" : [
                4,
                3
            ],
            "name" : "Armature"
        }
    ],
    "animations" : [
        {
            "channels" : [
                {
                    "sampler" : 0,
                    "target" : {
                        "node" : 3,
                        "path" : "translation"
                    }
                },
                {
                    "sampler" : 1,
                    "target" : {
                        "node" : 3,
                        "path" : "rotation"
                    }
                },
                {
                    "sampler" : 2,
                    "target" : {
                        "node" : 3,
                        "path" : "scale"
                    }
                },
                {
                    "sampler" : 3,
                    "target" : {
                        "node" : 1,
                        "path" : "translation"
                    }
                },
                {
                    "sampler" : 4,
                    "target" : {
                        "node" : 1,
                        "path" : "rotation"
                    }
                },
                {
                    "sampler" : 5,
                    "target" : {
                        "node" : 1,
                        "path" : "scale"
                    }
                },
                {
                    "sampler" : 6,
                    "target" : {
                        "node" : 0,
                        "path" : "translation"
                    }
                },
                {
                    "sampler" : 7,
                    "target" : {
                        "node" : 0,
                        "path" : "rotation"
                    }
                },
                {
                    "sampler" : 8,
                    "target" : {
                        "node" : 0,
                        "path" : "scale"
                    }
                },
                {
                    "sampler" : 9,
                    "target" : {
                        "node" : 2,
                        "path" : "translation"
                    }
                },
                {
                    "sampler" : 10,
                    "target" : {
                        "node" : 2,
                        "path" : "rotation"
                    }
                },
                {
                    "sampler" : 11,
                    "target" : {
                        "node" : 2,
                        "path" : "scale"
                    }
                }
            ],
            "name" : "walk01",
            "samplers" : [
                {
                    "input" : 7,
                    "interpolation" : "LINEAR",
                    "output" : 8
                },
                {
                    "input" : 7,
                    "interpolation" : "LINEAR",
                    "output" : 9
                },
                {
                    "input" : 7,
                    "interpolation" : "LINEAR",
                    "output" : 10
                },
                {
                    "input" : 7,
                    "interpolation" : "LINEAR",
                    "output" : 11
                },
                {
                    "input" : 7,
                    "interpolation" : "LINEAR",
                    "output" : 12
                },
                {
                    "input" : 7,
                    "interpolation" : "LINEAR",
                    "output" : 13
                },
                {
                    "input" : 7,
                    "interpolation" : "LINEAR",
                    "output" : 14
                },
                {
                    "input" : 7,
                    "interpolation" : "LINEAR",
                    "output" : 15
                },
                {
                    "input" : 7,
                    "interpolation" : "LINEAR",
                    "output" : 16
                },
                {
                    "input" : 7,
                    "interpolation" : "LINEAR",
                    "output" : 17
                },
                {
                    "input" : 7,
                    "interpolation" : "LINEAR",
                    "output" : 18
                },
                {
                    "input" : 7,
                    "interpolation" : "LINEAR",
                    "output" : 19
                }
            ]
        }
    ],
    "meshes" : [
        {
            "name" : "Sphere",
            "primitives" : [
                {
                    "attributes" : {
                        "POSITION" : 0,
                        "NORMAL" : 1,
                        "TEXCOORD_0" : 2,
                        "JOINTS_0" : 3,
                        "WEIGHTS_0" : 4
                    },
                    "indices" : 5
                }
            ]
        }
    ],
    "skins" : [
        {
            "inverseBindMatrices" : 6,
            "joints" : [
                3,
                1,
                0,
                2
            ],
            "name" : "Armature"
        }
    ],
    "accessors" : [
        {
            "bufferView" : 0,
            "componentType" : 5126,
            "count" : 1510,
            "max" : [
                0.3478910028934479,
                1.9158005714416504,
                0.34699589014053345
            ],
            "min" : [
                -0.34610071778297424,
                0.00038754940032958984,
                -0.3469959497451782
            ],
            "type" : "VEC3"
        },
        {
            "bufferView" : 1,
            "componentType" : 5126,
            "count" : 1510,
            "type" : "VEC3"
        },
        {
            "bufferView" : 2,
            "componentType" : 5126,
            "count" : 1510,
            "type" : "VEC2"
        },
        {
            "bufferView" : 3,
            "componentType" : 5123,
            "count" : 1510,
            "type" : "VEC4"
        },
        {
            "bufferView" : 4,
            "componentType" : 5126,
            "count" : 1510,
            "type" : "VEC4"
        },
        {
            "bufferView" : 5,
            "componentType" : 5123,
            "count" : 2286,
            "type" : "SCALAR"
        },
        {
            "bufferView" : 6,
            "componentType" : 5126,
            "count" : 4,
            "type" : "MAT4"
        },
        {
            "bufferView" : 7,
            "componentType" : 5126,
            "count" : 41,
            "max" : [
                1.3666666666666667
            ],
            "min" : [
                0.03333333333333333
            ],
            "type" : "SCALAR"
        },
        {
            "bufferView" : 8,
            "componentType" : 5126,
            "count" : 41,
            "type" : "VEC3"
        },
        {
            "bufferView" : 9,
            "componentType" : 5126,
            "count" : 41,
            "type" : "VEC4"
        },
        {
            "bufferView" : 10,
            "componentType" : 5126,
            "count" : 41,
            "type" : "VEC3"
        },
        {
            "bufferView" : 11,
            "componentType" : 5126,
            "count" : 41,
            "type" : "VEC3"
        },
        {
            "bufferView" : 12,
            "componentType" : 5126,
            "count" : 41,
            "type" : "VEC4"
        },
        {
            "bufferView" : 13,
            "componentType" : 5126,
            "count" : 41,
            "type" : "VEC3"
        },
        {
            "bufferView" : 14,
            "componentType" : 5126,
            "count" : 41,
            "type" : "VEC3"
        },
        {
            "bufferView" : 15,
            "componentType" : 5126,
            "count" : 41,
            "type" : "VEC4"
        },
        {
            "bufferView" : 16,
            "componentType" : 5126,
            "count" : 41,
            "type" : "VEC3"
        },
        {
            "bufferView" : 17,
            "componentType" : 5126,
            "count" : 41,
            "type" : "VEC3"
        },
        {
            "bufferView" : 18,
            "componentType" : 5126,
            "count" : 41,
            "type" : "VEC4"
        },
        {
            "bufferView" : 19,
            "componentType" : 5126,
            "count" : 41,
            "type" : "VEC3"
        }
    ],
    "bufferViews" : [
        {
            "buffer" : 0,
            "byteLength" : 18120,
            "byteOffset" : 0
        },
        {
            "buffer" : 0,
            "byteLength" : 18120,
            "byteOffset" : 18120
        },
        {
            "buffer" : 0,
            "byteLength" : 12080,
            "byteOffset" : 36240
        },
        {
            "buffer" : 0,
            "byteLength" : 12080,
            "byteOffset" : 48320
        },
        {
            "buffer" : 0,
            "byteLength" : 24160,
            "byteOffset" : 60400
        },
        {
            "buffer" : 0,
            "byteLength" : 4572,
            "byteOffset" : 84560
        },
        {
            "buffer" : 0,
            "byteLength" : 256,
            "byteOffset" : 89132
        },
        {
            "buffer" : 0,
            "byteLength" : 164,
            "byteOffset" : 89388
        },
        {
            "buffer" : 0,
            "byteLength" : 492,
            "byteOffset" : 89552
        },
        {
            "buffer" : 0,
            "byteLength" : 656,
            "byteOffset" : 90044
        },
        {
            "buffer" : 0,
            "byteLength" : 492,
            "byteOffset" : 90700
        },
        {
            "buffer" : 0,
            "byteLength" : 492,
            "byteOffset" : 91192
        },
        {
            "buffer" : 0,
            "byteLength" : 656,
            "byteOffset" : 91684
        },
        {
            "buffer" : 0,
            "byteLength" : 492,
            "byteOffset" : 92340
        },
        {
            "buffer" : 0,
            "byteLength" : 492,
            "byteOffset" : 92832
        },
        {
            "buffer" : 0,
            "byteLength" : 656,
            "byteOffset" : 93324
        },
        {
            "buffer" : 0,
            "byteLength" : 492,
            "byteOffset" : 93980
        },
        {
            "buffer" : 0,
            "byteLength" : 492,
            "byteOffset" : 94472
        },
        {
            "buffer" : 0,
            "byteLength" : 656,
            "byteOffset" : 94964
        },
        {
            "buffer" : 0,
            "byteLength" : 492,
            "byteOffset" : 95620
        }
    ],
    "buffers" : [
        {
            "byteLength" : 96112,
            "uri" : "data:application/octet-stream;base64,"
        }
    ]
}
